<svg aria-hidden="true" style="position: absolute; width: 0; height: 0; overflow: hidden;" version="1.1" xmlns="http://www.w3.org/2000/svg" xmlns:xlink="http://www.w3.org/1999/xlink">
    <defs>
        <symbol id="logo" viewBox="0 0 127 32">
            <path d="M19.304 0.092c-0 0.051 0.083 0.258 0.185 0.461 0.218 0.432 0.32 1.026 0.267 1.553-0.032 0.317-1.897 11.88-1.959 12.145l-0.028 0.118-2.735 0.001c-1.504 0-2.762 0.018-2.794 0.040s-0.821 1.554-1.751 3.406c-1.195 2.38-1.7 3.336-1.722 3.263-0.017-0.057-0.282-1.537-0.589-3.288s-0.581-3.238-0.609-3.303l-0.051-0.118h-5.976v0.136c0 0.075 0.048 0.197 0.106 0.27s0.156 0.291 0.217 0.482c0.227 0.715 0.213 0.842-0.845 7.322-0.527 3.228-0.971 5.934-0.988 6.013l-0.031 0.145h2.769l-0.036-0.145c-0.020-0.080-0.071-0.183-0.113-0.229s-0.126-0.224-0.187-0.395c-0.092-0.26-0.106-0.395-0.085-0.836 0.025-0.518 1.131-7.753 1.198-7.828 0.019-0.021 0.428 2.087 0.909 4.684l0.875 4.722 2 0.026 2.3-4.715c1.265-2.593 2.313-4.723 2.329-4.734 0.044-0.028-0.968 6.968-1.138 7.87-0.242 1.288-0.259 1.4-0.224 1.491 0.031 0.081 0.262 0.088 2.785 0.088h2.751v-0.129c0-0.071-0.057-0.213-0.127-0.315-0.195-0.286-0.262-0.656-0.228-1.261 0.017-0.296 0.465-3.193 1.012-6.537 0.54-3.303 0.982-6.033 0.982-6.066 0-0.044 0.379-0.060 1.375-0.060 1.064 0 1.375-0.015 1.375-0.066 0-0.036-0.089-0.241-0.198-0.456-0.322-0.633-0.307-0.834 0.376-5.189 0.313-1.997 0.586-3.673 0.606-3.724s0.422 1.998 0.904 4.605c0.478 2.584 0.879 4.728 0.891 4.764 0.017 0.049 0.268 0.066 1.009 0.066h0.986l2.293-4.697c1.261-2.584 2.314-4.72 2.339-4.748 0.027-0.030 0.034 0.014 0.017 0.105-0.016 0.086-0.253 1.719-0.528 3.63s-0.587 3.938-0.694 4.506c-0.107 0.568-0.18 1.071-0.162 1.118 0.030 0.078 0.289 0.086 2.81 0.086 2.675 0 2.777-0.004 2.777-0.098 0-0.054-0.049-0.161-0.11-0.237s-0.158-0.275-0.218-0.441c-0.091-0.256-0.103-0.386-0.080-0.855 0.017-0.344 0.399-2.822 1.010-6.565 0.54-3.307 0.983-6.048 0.983-6.092 0-0.071-0.32-0.080-2.736-0.079-1.505 0-2.763 0.018-2.796 0.039s-0.822 1.554-1.752 3.407c-1.355 2.697-1.699 3.342-1.724 3.237-0.017-0.072-0.284-1.576-0.594-3.342s-0.586-3.24-0.615-3.276c-0.041-0.051-0.712-0.066-3.033-0.066-2.803 0-2.98 0.005-2.981 0.092zM41.412 2.45c-1.211 0.21-2.422 0.85-3.339 1.762-1.455 1.449-2.302 3.735-2.114 5.71 0.212 2.227 1.749 4.137 3.704 4.603 0.845 0.202 2.218 0.119 3.142-0.188 1.725-0.574 3.195-1.853 4.056-3.529 1.007-1.959 1.095-3.972 0.249-5.676-0.632-1.274-1.763-2.22-3.119-2.61-0.519-0.149-1.914-0.188-2.58-0.072zM53.534 2.58c-1.129 0.326-2.918 0.63-3.704 0.63-0.363 0-0.399 0.010-0.452 0.124-0.047 0.104-0.028 0.174 0.118 0.432 0.323 0.57 0.32 0.602-0.532 5.779-0.409 2.485-0.744 4.575-0.744 4.645v0.126h2.353c2.66 0 2.468 0.036 2.233-0.424-0.106-0.209-0.118-0.306-0.113-0.918 0.005-0.615 0.065-1.030 0.595-4.121 0.324-1.89 0.589-3.456 0.589-3.479 0-0.073 0.703-0.365 0.952-0.395 0.366-0.045 0.586 0.057 0.727 0.335 0.065 0.129 0.119 0.295 0.119 0.368s-0.332 2.026-0.738 4.339c-0.406 2.313-0.726 4.225-0.71 4.25s1.085 0.045 2.377 0.045h2.349v-0.125c0-0.069-0.048-0.232-0.106-0.363-0.238-0.536-0.226-0.662 0.502-4.985 0.752-4.464 0.751-4.454 0.462-5.068-0.227-0.482-0.528-0.788-1.009-1.025l-0.4-0.197-0.743 0.004c-0.666 0.003-0.787 0.019-1.166 0.148-0.518 0.177-1.257 0.521-1.886 0.88-0.26 0.148-0.484 0.258-0.497 0.245s0.023-0.271 0.082-0.572c0.129-0.66 0.132-0.763 0.023-0.805-0.11-0.042-0.076-0.048-0.683 0.127zM76.692 2.53c-1.833 0.161-3.104 0.738-3.547 1.61-0.14 0.274-0.156 0.36-0.156 0.79 0 0.451 0.010 0.497 0.159 0.706 0.103 0.145 0.279 0.29 0.502 0.412 0.33 0.181 0.365 0.189 0.873 0.189 0.489 0 0.556-0.013 0.872-0.168 0.438-0.215 0.792-0.513 0.792-0.668 0-0.090-0.059-0.142-0.256-0.225-0.433-0.182-0.457-0.574-0.053-0.873 0.232-0.171 0.461-0.245 0.89-0.284 1.021-0.094 1.624 0.411 1.682 1.408 0.023 0.399-0.163 1.799-0.253 1.903-0.019 0.023-0.188 0.004-0.375-0.040-0.469-0.113-1.66-0.158-2.245-0.086-1.783 0.22-3.204 1.121-3.857 2.447-0.303 0.616-0.395 0.975-0.431 1.691-0.068 1.369 0.485 2.441 1.515 2.936 1 0.481 2.191 0.363 3.634-0.361l0.753-0.377v0.207c0 0.114 0.027 0.312 0.059 0.441l0.059 0.234h4.205l0.032-0.126c0.019-0.077-0.013-0.225-0.084-0.382-0.091-0.201-0.121-0.382-0.137-0.842-0.020-0.55 0.014-0.792 0.547-3.974 0.562-3.35 0.568-3.392 0.509-3.809-0.139-0.983-0.777-1.785-1.818-2.283-0.586-0.281-0.976-0.392-1.679-0.478-0.504-0.062-1.483-0.061-2.192 0.002zM62.64 2.817c-0.108 0.073-0.219 0.176-0.248 0.229-0.077 0.144-0.384 1.946-0.343 2.013 0.058 0.094 0.345 0.016 0.681-0.187 0.173-0.104 0.399-0.217 0.502-0.25 0.221-0.071 2.91-0.128 2.91-0.062-0 0.024-1.308 1.804-2.906 3.955-1.829 2.462-2.926 3.983-2.96 4.105-0.030 0.107-0.054 0.438-0.055 0.737-0 0.574 0.065 0.799 0.261 0.904 0.068 0.036 1.662 0.054 4.748 0.054h4.646l0.108-0.118c0.091-0.1 0.126-0.284 0.223-1.159 0.063-0.573 0.1-1.064 0.083-1.092-0.059-0.096-0.21-0.050-0.598 0.182-0.545 0.326-0.776 0.355-2.659 0.336l-1.566-0.017 3.037-4.132c1.67-2.272 3.095-4.25 3.165-4.395 0.167-0.345 0.185-1.011 0.032-1.15-0.088-0.080-0.475-0.087-4.481-0.087h-4.385l-0.196 0.133zM43.006 3.912c0.371 0.282 0.513 1.039 0.408 2.167-0.153 1.636-0.634 4.365-0.96 5.447-0.092 0.304-0.239 0.701-0.328 0.883-0.511 1.045-1.574 1.12-1.853 0.13-0.113-0.401-0.116-1.47-0.007-2.314 0.318-2.454 0.799-4.691 1.206-5.607 0.14-0.316 0.403-0.639 0.643-0.789 0.228-0.143 0.645-0.105 0.891 0.081zM77.924 8.764c0.030 0.032-0.050 0.652-0.207 1.604l-0.256 1.553-0.174 0.147c-0.459 0.388-1.126 0.553-1.469 0.364-0.319-0.175-0.397-0.376-0.394-1.011 0.004-0.857 0.268-1.6 0.754-2.117 0.47-0.501 0.747-0.628 1.317-0.606 0.21 0.008 0.403 0.038 0.43 0.066zM36.776 14.872c-0.813 0.211-1.528 0.35-2.534 0.495-0.405 0.058-0.755 0.124-0.776 0.146s-0.101 0.395-0.177 0.83c-0.076 0.434-0.15 0.855-0.166 0.934l-0.029 0.145h-0.65c-0.458 0-0.665 0.019-0.701 0.066-0.043 0.056-0.227 1.146-0.227 1.343 0 0.048 0.173 0.065 0.667 0.065 0.665 0 0.666 0 0.638 0.118-0.016 0.065-0.306 1.741-0.645 3.724-0.588 3.443-0.615 3.633-0.595 4.21 0.018 0.514 0.041 0.65 0.159 0.904 0.284 0.616 0.81 1.002 1.608 1.178 0.311 0.069 0.575 0.083 1.2 0.065 0.724-0.021 0.849-0.040 1.289-0.189 0.743-0.252 1.632-0.723 1.985-1.052l0.145-0.136v-0.753c0-0.414-0.021-0.753-0.047-0.753s-0.234 0.088-0.461 0.196c-0.449 0.212-0.925 0.283-1.199 0.177-0.203-0.078-0.365-0.452-0.364-0.84 0.001-0.231 0.974-6.216 1.094-6.73 0.027-0.117 0.040-0.118 0.869-0.118 0.755 0 0.844-0.009 0.87-0.092 0.047-0.152 0.19-1.081 0.19-1.237l0-0.145h-0.784c-0.431 0-0.796-0.012-0.81-0.026s0.077-0.6 0.203-1.303c0.126-0.702 0.218-1.306 0.204-1.343-0.037-0.096-0.188-0.077-0.954 0.122zM114.276 14.872c-0.813 0.211-1.527 0.35-2.534 0.495-0.406 0.058-0.754 0.124-0.776 0.146s-0.101 0.395-0.176 0.83-0.151 0.855-0.166 0.934l-0.029 0.145h-0.658c-0.632 0-0.659 0.005-0.708 0.118-0.042 0.1-0.212 1.145-0.212 1.304 0 0.030 0.271 0.051 0.665 0.051h0.666l-0.031 0.145c-0.017 0.080-0.306 1.755-0.643 3.724-0.583 3.413-0.611 3.607-0.592 4.184 0.017 0.514 0.041 0.65 0.158 0.904 0.284 0.616 0.81 1.002 1.607 1.178 0.312 0.069 0.575 0.083 1.2 0.065 0.724-0.021 0.848-0.040 1.288-0.189 0.767-0.26 1.606-0.705 1.985-1.055l0.145-0.134v-0.753c0-0.414-0.021-0.753-0.048-0.753s-0.233 0.088-0.461 0.196c-0.449 0.212-0.925 0.283-1.199 0.178-0.21-0.081-0.352-0.419-0.354-0.843-0.001-0.258 0.939-6.087 1.084-6.728 0.026-0.117 0.039-0.118 0.867-0.118 0.727 0 0.843-0.012 0.872-0.086 0.042-0.111 0.189-1.084 0.189-1.256v-0.132h-0.793c-0.775 0-0.794-0.003-0.794-0.112 0-0.062 0.097-0.654 0.215-1.317s0.199-1.228 0.181-1.256c-0.049-0.079-0.207-0.057-0.951 0.136zM77.878 16.926c-1.025 0.275-2.874 0.601-3.41 0.601-0.506 0-0.631 0.145-0.402 0.466 0.13 0.182 0.27 0.657 0.27 0.914 0 0.112-0.13 1.001-0.289 1.977s-0.505 3.101-0.769 4.722c-0.264 1.621-0.526 3.267-0.582 3.658-0.116 0.807-0.24 2.529-0.192 2.654 0.028 0.073 0.29 0.083 2.333 0.083 2.528 0 2.431 0.014 2.202-0.308-0.333-0.468-0.377-1.256-0.143-2.561 0.083-0.463 0.16-0.852 0.17-0.863s0.253 0.088 0.54 0.223c0.717 0.336 1.082 0.424 1.753 0.424 1.021 0 2.038-0.367 2.884-1.041 0.818-0.652 1.621-1.773 2.040-2.848 0.224-0.575 0.491-1.657 0.601-2.432 0.115-0.81 0.090-2.206-0.050-2.805-0.116-0.496-0.521-1.35-0.836-1.763-0.597-0.783-1.487-1.237-2.428-1.237-0.708 0-1.451 0.279-2.308 0.865-0.242 0.166-0.454 0.289-0.469 0.274s0.002-0.263 0.039-0.551c0.064-0.498 0.052-0.697-0.040-0.688-0.023 0.002-0.434 0.109-0.914 0.238zM24.406 16.823c-1.859 0.2-3.603 1.263-4.651 2.835-1.292 1.938-1.655 4.356-0.932 6.215 0.594 1.529 1.832 2.695 3.277 3.086 0.537 0.145 1.768 0.157 2.455 0.022 1.269-0.248 2.578-0.965 3.525-1.93 0.943-0.961 1.598-2.148 1.944-3.523 0.123-0.49 0.14-0.66 0.141-1.45 0.001-0.754-0.018-0.968-0.117-1.361-0.245-0.967-0.655-1.721-1.298-2.388-0.659-0.683-1.462-1.16-2.335-1.385-0.419-0.108-1.518-0.175-2.009-0.122zM45.552 16.823c-1.744 0.188-3.368 1.116-4.443 2.539-0.655 0.867-1.228 2.198-1.421 3.296-0.116 0.659-0.108 1.717 0.017 2.316 0.406 1.946 1.798 3.513 3.541 3.985 0.537 0.145 1.769 0.157 2.455 0.022 1.271-0.249 2.551-0.949 3.512-1.922 0.956-0.967 1.61-2.147 1.957-3.531 0.125-0.496 0.139-0.652 0.137-1.476-0.002-0.82-0.017-0.977-0.138-1.427-0.263-0.978-0.716-1.762-1.404-2.427-0.636-0.616-1.386-1.042-2.205-1.253-0.419-0.108-1.518-0.175-2.009-0.122zM91.808 16.845c-0.887 0.119-1.895 0.512-2.698 1.051-1.453 0.976-2.533 2.68-2.934 4.63-0.153 0.742-0.126 2.107 0.053 2.763 0.315 1.154 1.102 2.322 1.984 2.947 0.987 0.699 2.059 0.961 3.36 0.821 2.99-0.322 5.436-2.623 6.107-5.745 0.133-0.619 0.134-1.859 0.004-2.471-0.408-1.9-1.844-3.426-3.673-3.901-0.475-0.124-1.625-0.174-2.204-0.096zM66.751 16.901c-1.678 0.243-2.941 1.087-3.569 2.385-0.317 0.655-0.431 1.15-0.431 1.872-0 0.648 0.062 0.962 0.277 1.397 0.529 1.069 1.522 1.718 3.551 2.316 1.077 0.318 1.64 0.648 1.874 1.097 0.253 0.486-0.108 1.123-0.811 1.432-0.58 0.255-1.513 0.297-2.127 0.095-0.403-0.133-0.747-0.456-0.784-0.737-0.036-0.272 0.086-0.544 0.301-0.67 0.231-0.136 0.202-0.275-0.123-0.588-0.982-0.947-2.482-0.818-3.037 0.261-0.183 0.355-0.224 0.981-0.095 1.429 0.293 1.015 1.351 1.752 2.874 2.001 0.711 0.117 2.201 0.116 2.863-0.001 1.26-0.223 2.254-0.692 3.006-1.418 0.84-0.813 1.226-1.73 1.224-2.914-0.001-0.675-0.107-1.153-0.373-1.691-0.523-1.056-1.529-1.685-3.675-2.298-0.463-0.132-0.987-0.311-1.166-0.397-1.33-0.642-0.81-1.873 0.856-2.028 1.146-0.106 2.078 0.605 1.492 1.138-0.094 0.085-0.189 0.155-0.211 0.155s-0.041 0.045-0.041 0.101c0 0.202 0.545 0.532 1.186 0.717 0.799 0.231 1.647-0.089 1.956-0.738 0.151-0.318 0.1-1.017-0.102-1.386-0.418-0.763-1.412-1.312-2.729-1.505-0.598-0.088-1.664-0.1-2.186-0.024zM121.848 16.922c-2.287 0.383-3.739 1.879-3.88 3.999-0.063 0.94 0.213 1.753 0.816 2.401 0.579 0.623 1.26 0.981 2.836 1.492 0.555 0.18 1.135 0.391 1.288 0.469 0.529 0.269 0.857 0.662 0.857 1.030 0 0.38-0.363 0.82-0.874 1.062-0.429 0.203-0.853 0.274-1.425 0.241-0.816-0.048-1.373-0.344-1.499-0.797-0.075-0.272 0.067-0.615 0.305-0.738 0.227-0.117 0.207-0.241-0.088-0.539-0.645-0.653-1.66-0.862-2.389-0.492-0.677 0.345-1.018 1.149-0.827 1.963 0.19 0.815 0.606 1.301 1.475 1.722 0.66 0.32 1.215 0.455 2.164 0.527 3.206 0.241 5.647-1.072 6.26-3.368 0.126-0.471 0.126-1.582 0.001-2.049-0.326-1.208-1.222-2.042-2.83-2.632-0.222-0.082-0.75-0.245-1.171-0.362-0.917-0.256-1.113-0.333-1.434-0.568-0.312-0.227-0.436-0.477-0.403-0.815 0.034-0.345 0.225-0.581 0.635-0.781 0.864-0.422 2.139-0.29 2.511 0.258 0.183 0.27 0.156 0.408-0.132 0.675l-0.251 0.233 0.227 0.201c0.125 0.11 0.41 0.279 0.635 0.374 0.365 0.155 0.46 0.173 0.91 0.173 0.442 0 0.535-0.016 0.773-0.141 0.331-0.172 0.635-0.513 0.713-0.8 0.082-0.3 0.020-0.83-0.135-1.169-0.362-0.786-1.526-1.422-2.911-1.591-0.619-0.076-1.637-0.066-2.155 0.021zM57.023 17.048c-0.67 0.211-2.494 0.531-3.264 0.574-0.619 0.034-0.648 0.041-0.664 0.154-0.009 0.065 0.045 0.244 0.12 0.398 0.297 0.605 0.297 0.609-0.206 3.562-0.93 5.454-1.159 6.872-1.125 6.961 0.033 0.085 0.199 0.091 2.307 0.091 2.094 0 2.276-0.007 2.323-0.090 0.037-0.067 0.017-0.149-0.079-0.311-0.182-0.31-0.241-0.737-0.177-1.296 0.029-0.254 0.288-1.754 0.576-3.332 0.495-2.713 0.533-2.884 0.692-3.131 0.378-0.587 1.016-0.998 1.546-0.998 0.271 0 0.33 0.019 0.462 0.15 0.197 0.197 0.258 0.503 0.14 0.707-0.109 0.189-0.111 0.321-0.006 0.407s0.581-0.038 1.020-0.264c0.374-0.193 0.477-0.278 0.716-0.596 0.288-0.382 0.424-0.888 0.39-1.45-0.043-0.708-0.297-1.16-0.826-1.47-0.225-0.132-0.288-0.143-0.825-0.143-0.539 0-0.603 0.011-0.872 0.152-0.432 0.226-1.037 0.86-1.399 1.468-0.169 0.283-0.313 0.508-0.321 0.5s0.021-0.334 0.064-0.725c0.043-0.391 0.082-0.876 0.087-1.079 0.012-0.451 0.001-0.454-0.678-0.241zM103.518 17.035c-0.763 0.254-2.784 0.597-3.519 0.597-0.365 0-0.4 0.010-0.453 0.125-0.048 0.104-0.034 0.159 0.079 0.329 0.074 0.112 0.171 0.358 0.215 0.546 0.099 0.421 0.151 0.058-0.808 5.684-0.489 2.868-0.716 4.32-0.684 4.382 0.043 0.087 0.195 0.092 2.33 0.079 2.61-0.016 2.43 0.026 2.171-0.501-0.254-0.515-0.225-0.83 0.399-4.276 0.383-2.119 0.571-3.042 0.655-3.21 0.159-0.324 0.693-0.845 1.041-1.016 0.214-0.105 0.368-0.142 0.599-0.142 0.271 0 0.33 0.019 0.461 0.15 0.198 0.197 0.259 0.503 0.14 0.707-0.109 0.189-0.111 0.321-0.005 0.407 0.067 0.055 0.14 0.051 0.4-0.021 0.764-0.212 1.239-0.587 1.538-1.217 0.163-0.344 0.175-0.405 0.175-0.921 0-0.495-0.016-0.585-0.149-0.868-0.174-0.371-0.345-0.562-0.671-0.755-0.219-0.129-0.284-0.14-0.819-0.14-0.56 0-0.593 0.006-0.912 0.179-0.434 0.235-0.974 0.804-1.367 1.443-0.17 0.276-0.314 0.497-0.321 0.491s0.026-0.354 0.071-0.773c0.046-0.419 0.086-0.903 0.091-1.077 0.006-0.301 0.001-0.316-0.125-0.325-0.073-0.005-0.311 0.050-0.528 0.123zM25.368 18.268c0.639 0.308 0.734 1.207 0.386 3.65-0.416 2.92-0.842 4.626-1.32 5.282-0.282 0.388-0.738 0.562-1.132 0.433-0.666-0.219-0.776-1.374-0.378-3.976 0.538-3.521 1.041-5.083 1.737-5.398 0.285-0.129 0.427-0.127 0.708 0.008zM46.444 18.231c0.245 0.102 0.439 0.327 0.548 0.637 0.161 0.457 0.119 1.633-0.113 3.208-0.487 3.307-0.956 4.931-1.553 5.381-0.54 0.407-1.171 0.232-1.381-0.383-0.1-0.294-0.134-1.444-0.062-2.083 0.196-1.739 0.656-4.162 0.987-5.204 0.3-0.943 0.553-1.353 0.943-1.53 0.259-0.117 0.399-0.123 0.632-0.026zM92.875 18.214c0.239 0.089 0.483 0.362 0.584 0.651 0.134 0.382 0.12 1.539-0.034 2.636-0.372 2.669-0.797 4.601-1.182 5.368-0.28 0.559-0.692 0.851-1.132 0.802-0.312-0.035-0.488-0.168-0.65-0.489-0.316-0.626-0.15-2.73 0.448-5.681 0.417-2.062 0.81-2.988 1.373-3.243 0.247-0.111 0.385-0.122 0.593-0.043zM80.068 19.266c0.107 0.093 0.235 0.287 0.305 0.461 0.112 0.276 0.121 0.376 0.118 1.299-0.003 1.141-0.111 1.903-0.521 3.68-0.321 1.39-0.505 1.822-0.952 2.233-0.262 0.24-0.504 0.324-0.945 0.324-0.359 0-0.829-0.175-0.829-0.308 0-0.047 0.285-1.734 0.634-3.749s0.634-3.68 0.634-3.7c0-0.020 0.172-0.118 0.382-0.218 0.523-0.249 0.904-0.256 1.173-0.021z"></path>
        </symbol>
        <symbol id="facebook" viewBox="0 0 16 32">
            <path d="M13.080 5.313h2.921v-5.088c-0.504-0.069-2.237-0.225-4.256-0.225-4.212 0-7.097 2.649-7.097 7.519v4.481h-4.648v5.688h4.648v14.312h5.699v-14.311h4.46l0.708-5.688h-5.169v-3.919c0.001-1.644 0.444-2.769 2.735-2.769z"></path>
        </symbol>
        <symbol id="instagram" viewBox="0 0 32 32">
            <path d="M16.316 32c-0.106 0-0.212 0-0.319-0.001-2.508 0.006-4.826-0.058-7.080-0.195-2.066-0.126-3.953-0.84-5.455-2.065-1.45-1.182-2.44-2.78-2.942-4.75-0.438-1.715-0.461-3.398-0.483-5.026-0.016-1.168-0.033-2.552-0.036-3.96 0.003-1.414 0.020-2.798 0.036-3.966 0.022-1.628 0.045-3.311 0.483-5.026 0.503-1.97 1.493-3.568 2.942-4.75 1.503-1.225 3.389-1.939 5.456-2.065 2.254-0.137 4.572-0.201 7.086-0.195 2.509-0.005 4.826 0.058 7.080 0.195 2.067 0.126 3.953 0.84 5.455 2.065 1.45 1.182 2.44 2.78 2.942 4.75 0.438 1.715 0.461 3.398 0.483 5.026 0.016 1.168 0.033 2.552 0.036 3.96v0.006c-0.003 1.408-0.020 2.792-0.036 3.96-0.022 1.628-0.045 3.311-0.483 5.026-0.503 1.97-1.492 3.568-2.942 4.75-1.503 1.225-3.389 1.939-5.455 2.065-2.159 0.131-4.376 0.195-6.768 0.195zM15.997 29.5c2.468 0.006 4.733-0.057 6.934-0.19 1.563-0.095 2.917-0.602 4.027-1.507 1.026-0.837 1.732-1.991 2.1-3.431 0.364-1.428 0.385-2.96 0.405-4.442 0.016-1.16 0.033-2.535 0.036-3.929-0.003-1.394-0.020-2.769-0.036-3.929-0.020-1.482-0.041-3.015-0.405-4.443-0.367-1.44-1.074-2.594-2.1-3.431-1.11-0.905-2.465-1.412-4.027-1.507-2.201-0.134-4.467-0.196-6.929-0.19-2.467-0.006-4.733 0.056-6.934 0.19-1.563 0.095-2.917 0.602-4.027 1.507-1.026 0.837-1.732 1.991-2.1 3.431-0.364 1.428-0.385 2.96-0.406 4.443-0.016 1.161-0.032 2.537-0.036 3.932 0.003 1.389 0.020 2.765 0.036 3.926 0.020 1.482 0.041 3.015 0.406 4.442 0.367 1.44 1.074 2.594 2.1 3.431 1.11 0.905 2.465 1.412 4.027 1.507 2.201 0.134 4.467 0.196 6.928 0.19zM15.937 23.812c-4.308 0-7.813-3.505-7.813-7.812s3.505-7.813 7.813-7.813c4.308 0 7.813 3.505 7.813 7.813s-3.505 7.812-7.813 7.812zM15.937 10.687c-2.929 0-5.313 2.383-5.313 5.313s2.383 5.313 5.313 5.313c2.929 0 5.313-2.383 5.313-5.313s-2.383-5.313-5.313-5.313zM24.625 5.687c-1.036 0-1.875 0.839-1.875 1.875s0.839 1.875 1.875 1.875c1.036 0 1.875-0.839 1.875-1.875s-0.839-1.875-1.875-1.875z"></path>
        </symbol>
    </defs>
</svg>